<?xml version="1.0" standalone="no"?>
<!DOCTYPE svg PUBLIC "-//W3C//DTD SVG 20010904//EN"
 "http://www.w3.org/TR/2001/REC-SVG-20010904/DTD/svg10.dtd">
<svg version="1.0" xmlns="http://www.w3.org/2000/svg"
 width="136.000000pt" height="136.000000pt" viewBox="0 0 136.000000 136.000000"
 preserveAspectRatio="xMidYMid meet">
<metadata>
Created by potrace 1.14, written by Peter Selinger 2001-2017
</metadata>
<g transform="translate(0.000000,136.000000) scale(0.100000,-0.100000)"
fill="#000000" stroke="none">
<path d="M1090 690 l0 -110 45 2 c25 0 48 -1 51 -5 3 -3 18 -1 33 4 32 11 51
45 51 90 0 56 -74 101 -108 67 -9 -9 -12 -4 -12 25 0 34 -2 37 -30 37 l-30 0
0 -110z m118 -7 c17 -33 -5 -64 -39 -56 -19 5 -27 51 -12 66 12 13 42 7 51
-10z"/>
<path d="M175 778 c-3 -7 -20 -55 -39 -105 l-34 -93 28 0 c16 0 30 7 34 15 8
21 75 20 90 -1 7 -9 23 -14 38 -12 l25 3 -37 100 c-35 96 -38 100 -68 103 -20
2 -34 -2 -37 -10z m50 -95 c5 -19 3 -23 -15 -23 -16 0 -20 4 -16 16 3 9 6 23
6 32 0 21 15 5 25 -25z"/>
<path d="M742 685 l-1 -105 64 0 c58 0 65 2 65 20 0 16 -7 20 -35 20 l-35 0 0
85 0 85 -28 0 -29 0 -1 -105z"/>
<path d="M340 625 l0 -125 25 0 c23 0 25 4 25 44 l0 44 35 -8 c83 -19 125 89
59 154 -18 19 -65 21 -82 4 -9 -9 -12 -9 -12 0 0 7 -11 12 -25 12 l-25 0 0
-125z m118 46 c5 -32 -23 -54 -49 -40 -11 5 -19 18 -19 27 0 45 62 56 68 13z"/>
<path d="M540 624 l0 -124 30 0 c19 0 30 5 29 13 -1 6 -1 27 0 44 1 30 3 32
24 24 74 -28 132 85 74 143 -20 20 -34 24 -90 24 l-67 0 0 -124z m118 59 c17
-33 -5 -64 -39 -56 -19 5 -27 51 -12 66 12 13 42 7 51 -10z"/>
<path d="M904 725 c-31 -31 -33 -92 -4 -123 21 -23 31 -26 65 -22 11 1 36 3
55 4 l35 1 0 80 0 80 -64 2 c-55 2 -66 -1 -87 -22z m94 -57 c4 -35 -29 -56
-52 -32 -19 18 -19 20 -5 45 16 30 53 21 57 -13z"/>
</g>
</svg>
